STARTFONT 2.1
FONT -Sun-Serif-Medium-R-Normal-Serif-11-110-72-72-M-70-ISO8859-1
SIZE 11 72 72
FONTBOUNDINGBOX 7 13 0 -4

STARTPROPERTIES 21
FONTNAME_REGISTRY ""
FOUNDRY "Sun"
FAMILY_NAME "Serif"
WEIGHT_NAME "Medium"
SLANT "R"
SETWIDTH_NAME "Normal"
ADD_STYLE_NAME "Serif"
PIXEL_SIZE 11
POINT_SIZE 110
RESOLUTION_X 72
RESOLUTION_Y 72
SPACING "M"
AVERAGE_WIDTH 70
CHARSET_REGISTRY "ISO8859"
CHARSET_ENCODING "1"
WEIGHT 10
X_HEIGHT -1
QUAD_WIDTH 7
DEFAULT_CHAR 0
FONT_DESCENT 4
FONT_ASCENT 9
ENDPROPERTIES

CHARS 191

STARTCHAR <unknown>
ENCODING 32
SWIDTH 42 0
DWIDTH 7 0
BBX 7 13 0 -4
BITMAP
00
00
00
00
00
00
00
00
00
00
00
00
00
ENDCHAR

STARTCHAR <unknown>
ENCODING 33
SWIDTH 42 0
DWIDTH 7 0
BBX 7 13 0 -4
BITMAP
00
10
10
10
10
10
10
00
00
10
00
00
00
ENDCHAR

STARTCHAR <unknown>
ENCODING 34
SWIDTH 42 0
DWIDTH 7 0
BBX 7 13 0 -4
BITMAP
00
28
28
28
00
00
00
00
00
00
00
00
00
ENDCHAR

STARTCHAR <unknown>
ENCODING 35
SWIDTH 42 0
DWIDTH 7 0
BBX 7 13 0 -4
BITMAP
00
14
14
7E
28
28
FC
50
50
50
00
00
00
ENDCHAR

STARTCHAR <unknown>
ENCODING 36
SWIDTH 42 0
DWIDTH 7 0
BBX 7 13 0 -4
BITMAP
10
10
3C
44
40
30
18
04
44
78
10
10
00
ENDCHAR

STARTCHAR <unknown>
ENCODING 37
SWIDTH 42 0
DWIDTH 7 0
BBX 7 13 0 -4
BITMAP
00
30
50
54
68
10
2C
54
14
18
00
00
00
ENDCHAR

STARTCHAR <unknown>
ENCODING 38
SWIDTH 42 0
DWIDTH 7 0
BBX 7 13 0 -4
BITMAP
00
18
24
20
10
30
4A
44
44
3A
00
00
00
ENDCHAR

STARTCHAR <unknown>
ENCODING 39
SWIDTH 42 0
DWIDTH 7 0
BBX 7 13 0 -4
BITMAP
00
08
08
10
20
00
00
00
00
00
00
00
00
ENDCHAR

STARTCHAR <unknown>
ENCODING 40
SWIDTH 42 0
DWIDTH 7 0
BBX 7 13 0 -4
BITMAP
00
08
10
10
20
20
20
20
20
10
10
08
00
ENDCHAR

STARTCHAR <unknown>
ENCODING 41
SWIDTH 42 0
DWIDTH 7 0
BBX 7 13 0 -4
BITMAP
00
20
10
10
08
08
08
08
08
10
10
20
00
ENDCHAR

STARTCHAR <unknown>
ENCODING 42
SWIDTH 42 0
DWIDTH 7 0
BBX 7 13 0 -4
BITMAP
00
00
10
10
54
38
28
44
00
00
00
00
00
ENDCHAR

STARTCHAR <unknown>
ENCODING 43
SWIDTH 42 0
DWIDTH 7 0
BBX 7 13 0 -4
BITMAP
00
00
00
00
10
10
7C
10
10
00
00
00
00
ENDCHAR

STARTCHAR <unknown>
ENCODING 44
SWIDTH 42 0
DWIDTH 7 0
BBX 7 13 0 -4
BITMAP
00
00
00
00
00
00
00
00
18
08
08
10
00
ENDCHAR

STARTCHAR <unknown>
ENCODING 45
SWIDTH 42 0
DWIDTH 7 0
BBX 7 13 0 -4
BITMAP
00
00
00
00
00
00
7C
00
00
00
00
00
00
ENDCHAR

STARTCHAR <unknown>
ENCODING 46
SWIDTH 42 0
DWIDTH 7 0
BBX 7 13 0 -4
BITMAP
00
00
00
00
00
00
00
00
18
18
00
00
00
ENDCHAR

STARTCHAR <unknown>
ENCODING 47
SWIDTH 42 0
DWIDTH 7 0
BBX 7 13 0 -4
BITMAP
00
04
04
08
08
10
10
20
20
40
40
00
00
ENDCHAR

STARTCHAR <unknown>
ENCODING 48
SWIDTH 42 0
DWIDTH 7 0
BBX 7 13 0 -4
BITMAP
00
38
44
44
44
44
44
44
44
38
00
00
00
ENDCHAR

STARTCHAR <unknown>
ENCODING 49
SWIDTH 42 0
DWIDTH 7 0
BBX 7 13 0 -4
BITMAP
00
10
30
50
10
10
10
10
10
7C
00
00
00
ENDCHAR

STARTCHAR <unknown>
ENCODING 50
SWIDTH 42 0
DWIDTH 7 0
BBX 7 13 0 -4
BITMAP
00
38
44
44
04
08
10
20
44
7C
00
00
00
ENDCHAR

STARTCHAR <unknown>
ENCODING 51
SWIDTH 42 0
DWIDTH 7 0
BBX 7 13 0 -4
BITMAP
00
38
44
04
08
18
04
04
44
38
00
00
00
ENDCHAR

STARTCHAR <unknown>
ENCODING 52
SWIDTH 42 0
DWIDTH 7 0
BBX 7 13 0 -4
BITMAP
08
10
10
20
28
48
48
7C
08
08
00
00
00
ENDCHAR

STARTCHAR <unknown>
ENCODING 53
SWIDTH 42 0
DWIDTH 7 0
BBX 7 13 0 -4
BITMAP
00
3C
20
20
38
24
04
04
44
38
00
00
00
ENDCHAR

STARTCHAR <unknown>
ENCODING 54
SWIDTH 42 0
DWIDTH 7 0
BBX 7 13 0 -4
BITMAP
18
20
20
40
58
64
44
44
44
38
00
00
00
ENDCHAR

STARTCHAR <unknown>
ENCODING 55
SWIDTH 42 0
DWIDTH 7 0
BBX 7 13 0 -4
BITMAP
00
7C
44
04
08
08
10
10
10
10
00
00
00
ENDCHAR

STARTCHAR <unknown>
ENCODING 56
SWIDTH 42 0
DWIDTH 7 0
BBX 7 13 0 -4
BITMAP
00
38
44
44
44
38
44
44
44
38
00
00
00
ENDCHAR

STARTCHAR <unknown>
ENCODING 57
SWIDTH 42 0
DWIDTH 7 0
BBX 7 13 0 -4
BITMAP
00
38
44
44
44
4C
34
04
08
08
30
00
00
ENDCHAR

STARTCHAR <unknown>
ENCODING 58
SWIDTH 42 0
DWIDTH 7 0
BBX 7 13 0 -4
BITMAP
00
00
00
00
18
18
00
00
18
18
00
00
00
ENDCHAR

STARTCHAR <unknown>
ENCODING 59
SWIDTH 42 0
DWIDTH 7 0
BBX 7 13 0 -4
BITMAP
00
00
00
00
18
18
00
00
18
08
08
10
00
ENDCHAR

STARTCHAR <unknown>
ENCODING 60
SWIDTH 42 0
DWIDTH 7 0
BBX 7 13 0 -4
BITMAP
00
00
04
08
10
20
40
20
10
08
04
00
00
ENDCHAR

STARTCHAR <unknown>
ENCODING 61
SWIDTH 42 0
DWIDTH 7 0
BBX 7 13 0 -4
BITMAP
00
00
00
00
00
7C
00
7C
00
00
00
00
00
ENDCHAR

STARTCHAR <unknown>
ENCODING 62
SWIDTH 42 0
DWIDTH 7 0
BBX 7 13 0 -4
BITMAP
00
00
40
20
10
08
04
08
10
20
40
00
00
ENDCHAR

STARTCHAR <unknown>
ENCODING 63
SWIDTH 42 0
DWIDTH 7 0
BBX 7 13 0 -4
BITMAP
00
38
44
44
04
08
10
00
00
10
00
00
00
ENDCHAR

STARTCHAR <unknown>
ENCODING 64
SWIDTH 42 0
DWIDTH 7 0
BBX 7 13 0 -4
BITMAP
00
1C
26
42
4E
52
52
4C
40
22
1C
00
00
ENDCHAR

STARTCHAR <unknown>
ENCODING 65
SWIDTH 42 0
DWIDTH 7 0
BBX 7 13 0 -4
BITMAP
00
10
10
28
28
28
44
7C
44
C6
00
00
00
ENDCHAR

STARTCHAR <unknown>
ENCODING 66
SWIDTH 42 0
DWIDTH 7 0
BBX 7 13 0 -4
BITMAP
00
78
24
24
24
3C
22
22
22
7C
00
00
00
ENDCHAR

STARTCHAR <unknown>
ENCODING 67
SWIDTH 42 0
DWIDTH 7 0
BBX 7 13 0 -4
BITMAP
00
1A
26
42
40
40
40
42
64
38
00
00
00
ENDCHAR

STARTCHAR <unknown>
ENCODING 68
SWIDTH 42 0
DWIDTH 7 0
BBX 7 13 0 -4
BITMAP
00
78
24
22
22
22
22
22
24
78
00
00
00
ENDCHAR

STARTCHAR <unknown>
ENCODING 69
SWIDTH 42 0
DWIDTH 7 0
BBX 7 13 0 -4
BITMAP
00
7E
22
20
20
3C
20
20
22
7E
00
00
00
ENDCHAR

STARTCHAR <unknown>
ENCODING 70
SWIDTH 42 0
DWIDTH 7 0
BBX 7 13 0 -4
BITMAP
00
7E
22
20
20
3C
20
20
20
70
00
00
00
ENDCHAR

STARTCHAR <unknown>
ENCODING 71
SWIDTH 42 0
DWIDTH 7 0
BBX 7 13 0 -4
BITMAP
00
1A
26
42
40
40
4E
42
66
3A
00
00
00
ENDCHAR

STARTCHAR <unknown>
ENCODING 72
SWIDTH 42 0
DWIDTH 7 0
BBX 7 13 0 -4
BITMAP
00
EE
44
44
44
7C
44
44
44
EE
00
00
00
ENDCHAR

STARTCHAR <unknown>
ENCODING 73
SWIDTH 42 0
DWIDTH 7 0
BBX 7 13 0 -4
BITMAP
00
7C
10
10
10
10
10
10
10
7C
00
00
00
ENDCHAR

STARTCHAR <unknown>
ENCODING 74
SWIDTH 42 0
DWIDTH 7 0
BBX 7 13 0 -4
BITMAP
00
1E
04
04
04
04
04
44
44
38
00
00
00
ENDCHAR

STARTCHAR <unknown>
ENCODING 75
SWIDTH 42 0
DWIDTH 7 0
BBX 7 13 0 -4
BITMAP
00
66
24
28
30
28
28
24
24
66
00
00
00
ENDCHAR

STARTCHAR <unknown>
ENCODING 76
SWIDTH 42 0
DWIDTH 7 0
BBX 7 13 0 -4
BITMAP
00
70
20
20
20
20
20
20
22
7E
00
00
00
ENDCHAR

STARTCHAR <unknown>
ENCODING 77
SWIDTH 42 0
DWIDTH 7 0
BBX 7 13 0 -4
BITMAP
00
C6
44
6C
6C
54
54
44
44
C6
00
00
00
ENDCHAR

STARTCHAR <unknown>
ENCODING 78
SWIDTH 42 0
DWIDTH 7 0
BBX 7 13 0 -4
BITMAP
00
CE
44
64
64
54
54
4C
4C
E4
00
00
00
ENDCHAR

STARTCHAR <unknown>
ENCODING 79
SWIDTH 42 0
DWIDTH 7 0
BBX 7 13 0 -4
BITMAP
00
1C
26
42
42
42
42
42
64
38
00
00
00
ENDCHAR

STARTCHAR <unknown>
ENCODING 80
SWIDTH 42 0
DWIDTH 7 0
BBX 7 13 0 -4
BITMAP
00
7C
22
22
22
3C
20
20
20
70
00
00
00
ENDCHAR

STARTCHAR <unknown>
ENCODING 81
SWIDTH 42 0
DWIDTH 7 0
BBX 7 13 0 -4
BITMAP
00
1C
26
42
42
42
42
42
64
38
10
08
06
ENDCHAR

STARTCHAR <unknown>
ENCODING 82
SWIDTH 42 0
DWIDTH 7 0
BBX 7 13 0 -4
BITMAP
00
7C
22
22
22
3C
28
24
22
66
00
00
00
ENDCHAR

STARTCHAR <unknown>
ENCODING 83
SWIDTH 42 0
DWIDTH 7 0
BBX 7 13 0 -4
BITMAP
00
3A
46
42
30
0C
06
42
62
5C
00
00
00
ENDCHAR

STARTCHAR <unknown>
ENCODING 84
SWIDTH 42 0
DWIDTH 7 0
BBX 7 13 0 -4
BITMAP
00
FE
92
10
10
10
10
10
10
38
00
00
00
ENDCHAR

STARTCHAR <unknown>
ENCODING 85
SWIDTH 42 0
DWIDTH 7 0
BBX 7 13 0 -4
BITMAP
00
EE
44
44
44
44
44
44
44
38
00
00
00
ENDCHAR

STARTCHAR <unknown>
ENCODING 86
SWIDTH 42 0
DWIDTH 7 0
BBX 7 13 0 -4
BITMAP
00
EE
44
44
28
28
28
10
10
10
00
00
00
ENDCHAR

STARTCHAR <unknown>
ENCODING 87
SWIDTH 42 0
DWIDTH 7 0
BBX 7 13 0 -4
BITMAP
00
EE
44
44
54
54
6C
28
28
28
00
00
00
ENDCHAR

STARTCHAR <unknown>
ENCODING 88
SWIDTH 42 0
DWIDTH 7 0
BBX 7 13 0 -4
BITMAP
00
EE
44
28
28
10
28
28
44
EE
00
00
00
ENDCHAR

STARTCHAR <unknown>
ENCODING 89
SWIDTH 42 0
DWIDTH 7 0
BBX 7 13 0 -4
BITMAP
00
EE
44
44
28
28
10
10
10
38
00
00
00
ENDCHAR

STARTCHAR <unknown>
ENCODING 90
SWIDTH 42 0
DWIDTH 7 0
BBX 7 13 0 -4
BITMAP
00
7E
44
08
08
10
10
20
22
7E
00
00
00
ENDCHAR

STARTCHAR <unknown>
ENCODING 91
SWIDTH 42 0
DWIDTH 7 0
BBX 7 13 0 -4
BITMAP
00
3C
20
20
20
20
20
20
20
20
20
3C
00
ENDCHAR

STARTCHAR <unknown>
ENCODING 92
SWIDTH 42 0
DWIDTH 7 0
BBX 7 13 0 -4
BITMAP
00
40
40
20
20
10
10
08
08
04
04
00
00
ENDCHAR

STARTCHAR <unknown>
ENCODING 93
SWIDTH 42 0
DWIDTH 7 0
BBX 7 13 0 -4
BITMAP
00
3C
04
04
04
04
04
04
04
04
04
3C
00
ENDCHAR

STARTCHAR <unknown>
ENCODING 94
SWIDTH 42 0
DWIDTH 7 0
BBX 7 13 0 -4
BITMAP
00
00
10
28
44
00
00
00
00
00
00
00
00
ENDCHAR

STARTCHAR <unknown>
ENCODING 95
SWIDTH 42 0
DWIDTH 7 0
BBX 7 13 0 -4
BITMAP
00
00
00
00
00
00
00
00
00
00
7E
00
00
ENDCHAR

STARTCHAR <unknown>
ENCODING 96
SWIDTH 42 0
DWIDTH 7 0
BBX 7 13 0 -4
BITMAP
00
20
20
10
08
00
00
00
00
00
00
00
00
ENDCHAR

STARTCHAR <unknown>
ENCODING 97
SWIDTH 42 0
DWIDTH 7 0
BBX 7 13 0 -4
BITMAP
00
00
00
00
38
04
3C
44
44
3C
00
00
00
ENDCHAR

STARTCHAR <unknown>
ENCODING 98
SWIDTH 42 0
DWIDTH 7 0
BBX 7 13 0 -4
BITMAP
00
C0
40
40
58
64
44
44
64
58
00
00
00
ENDCHAR

STARTCHAR <unknown>
ENCODING 99
SWIDTH 42 0
DWIDTH 7 0
BBX 7 13 0 -4
BITMAP
00
00
00
00
3C
44
40
40
64
38
00
00
00
ENDCHAR

STARTCHAR <unknown>
ENCODING 100
SWIDTH 42 0
DWIDTH 7 0
BBX 7 13 0 -4
BITMAP
00
0C
04
04
34
4C
44
44
4C
36
00
00
00
ENDCHAR

STARTCHAR <unknown>
ENCODING 101
SWIDTH 42 0
DWIDTH 7 0
BBX 7 13 0 -4
BITMAP
00
00
00
00
38
44
7C
40
44
38
00
00
00
ENDCHAR

STARTCHAR <unknown>
ENCODING 102
SWIDTH 42 0
DWIDTH 7 0
BBX 7 13 0 -4
BITMAP
00
0C
10
10
7C
10
10
10
10
38
00
00
00
ENDCHAR

STARTCHAR <unknown>
ENCODING 103
SWIDTH 42 0
DWIDTH 7 0
BBX 7 13 0 -4
BITMAP
00
00
00
00
1A
24
24
38
40
3C
42
42
3C
ENDCHAR

STARTCHAR <unknown>
ENCODING 104
SWIDTH 42 0
DWIDTH 7 0
BBX 7 13 0 -4
BITMAP
00
60
20
20
38
24
24
24
24
66
00
00
00
ENDCHAR

STARTCHAR <unknown>
ENCODING 105
SWIDTH 42 0
DWIDTH 7 0
BBX 7 13 0 -4
BITMAP
00
10
10
00
70
10
10
10
10
7C
00
00
00
ENDCHAR

STARTCHAR <unknown>
ENCODING 106
SWIDTH 42 0
DWIDTH 7 0
BBX 7 13 0 -4
BITMAP
00
08
08
00
38
08
08
08
08
08
08
48
30
ENDCHAR

STARTCHAR <unknown>
ENCODING 107
SWIDTH 42 0
DWIDTH 7 0
BBX 7 13 0 -4
BITMAP
00
60
20
20
26
24
28
38
24
66
00
00
00
ENDCHAR

STARTCHAR <unknown>
ENCODING 108
SWIDTH 42 0
DWIDTH 7 0
BBX 7 13 0 -4
BITMAP
00
70
10
10
10
10
10
10
10
7C
00
00
00
ENDCHAR

STARTCHAR <unknown>
ENCODING 109
SWIDTH 42 0
DWIDTH 7 0
BBX 7 13 0 -4
BITMAP
00
00
00
00
68
54
54
54
54
54
00
00
00
ENDCHAR

STARTCHAR <unknown>
ENCODING 110
SWIDTH 42 0
DWIDTH 7 0
BBX 7 13 0 -4
BITMAP
00
00
00
00
58
24
24
24
24
66
00
00
00
ENDCHAR

STARTCHAR <unknown>
ENCODING 111
SWIDTH 42 0
DWIDTH 7 0
BBX 7 13 0 -4
BITMAP
00
00
00
00
38
4C
44
44
64
38
00
00
00
ENDCHAR

STARTCHAR <unknown>
ENCODING 112
SWIDTH 42 0
DWIDTH 7 0
BBX 7 13 0 -4
BITMAP
00
00
00
00
D8
64
44
44
64
58
40
40
E0
ENDCHAR

STARTCHAR <unknown>
ENCODING 113
SWIDTH 42 0
DWIDTH 7 0
BBX 7 13 0 -4
BITMAP
00
00
00
00
36
4C
44
44
4C
34
04
04
0E
ENDCHAR

STARTCHAR <unknown>
ENCODING 114
SWIDTH 42 0
DWIDTH 7 0
BBX 7 13 0 -4
BITMAP
00
00
00
00
6C
34
20
20
20
70
00
00
00
ENDCHAR

STARTCHAR <unknown>
ENCODING 115
SWIDTH 42 0
DWIDTH 7 0
BBX 7 13 0 -4
BITMAP
00
00
00
00
3C
44
30
08
44
78
00
00
00
ENDCHAR

STARTCHAR <unknown>
ENCODING 116
SWIDTH 42 0
DWIDTH 7 0
BBX 7 13 0 -4
BITMAP
00
10
10
10
7C
10
10
10
10
0C
00
00
00
ENDCHAR

STARTCHAR <unknown>
ENCODING 117
SWIDTH 42 0
DWIDTH 7 0
BBX 7 13 0 -4
BITMAP
00
00
00
00
6C
24
24
24
24
1A
00
00
00
ENDCHAR

STARTCHAR <unknown>
ENCODING 118
SWIDTH 42 0
DWIDTH 7 0
BBX 7 13 0 -4
BITMAP
00
00
00
00
EE
44
28
28
10
10
00
00
00
ENDCHAR

STARTCHAR <unknown>
ENCODING 119
SWIDTH 42 0
DWIDTH 7 0
BBX 7 13 0 -4
BITMAP
00
00
00
00
EE
44
54
54
28
28
00
00
00
ENDCHAR

STARTCHAR <unknown>
ENCODING 120
SWIDTH 42 0
DWIDTH 7 0
BBX 7 13 0 -4
BITMAP
00
00
00
00
66
24
18
18
24
66
00
00
00
ENDCHAR

STARTCHAR <unknown>
ENCODING 121
SWIDTH 42 0
DWIDTH 7 0
BBX 7 13 0 -4
BITMAP
00
00
00
00
EE
44
24
28
18
10
10
20
C0
ENDCHAR

STARTCHAR <unknown>
ENCODING 122
SWIDTH 42 0
DWIDTH 7 0
BBX 7 13 0 -4
BITMAP
00
00
00
00
7C
48
10
20
44
7C
00
00
00
ENDCHAR

STARTCHAR <unknown>
ENCODING 123
SWIDTH 42 0
DWIDTH 7 0
BBX 7 13 0 -4
BITMAP
00
0C
10
10
10
10
60
10
10
10
10
0C
00
ENDCHAR

STARTCHAR <unknown>
ENCODING 124
SWIDTH 42 0
DWIDTH 7 0
BBX 7 13 0 -4
BITMAP
00
10
10
10
10
10
10
10
10
10
10
10
00
ENDCHAR

STARTCHAR <unknown>
ENCODING 125
SWIDTH 42 0
DWIDTH 7 0
BBX 7 13 0 -4
BITMAP
00
60
10
10
10
10
0C
10
10
10
10
60
00
ENDCHAR

STARTCHAR <unknown>
ENCODING 126
SWIDTH 42 0
DWIDTH 7 0
BBX 7 13 0 -4
BITMAP
00
00
32
5A
4C
00
00
00
00
00
00
00
00
ENDCHAR

STARTCHAR <unknown>
ENCODING 160
SWIDTH 42 0
DWIDTH 7 0
BBX 7 13 0 -4
BITMAP
00
00
00
00
00
00
00
00
00
00
00
00
00
ENDCHAR

STARTCHAR <unknown>
ENCODING 161
SWIDTH 42 0
DWIDTH 7 0
BBX 7 13 0 -4
BITMAP
00
10
00
00
10
10
10
10
10
10
00
00
00
ENDCHAR

STARTCHAR <unknown>
ENCODING 162
SWIDTH 42 0
DWIDTH 7 0
BBX 7 13 0 -4
BITMAP
00
00
00
10
3C
54
50
50
54
38
10
00
00
ENDCHAR

STARTCHAR <unknown>
ENCODING 163
SWIDTH 42 0
DWIDTH 7 0
BBX 7 13 0 -4
BITMAP
00
18
24
20
20
78
20
20
20
32
4C
00
00
ENDCHAR

STARTCHAR <unknown>
ENCODING 164
SWIDTH 42 0
DWIDTH 7 0
BBX 7 13 0 -4
BITMAP
00
00
00
44
38
28
38
44
00
00
00
00
00
ENDCHAR

STARTCHAR <unknown>
ENCODING 165
SWIDTH 42 0
DWIDTH 7 0
BBX 7 13 0 -4
BITMAP
00
82
44
28
10
10
38
10
10
10
00
00
00
ENDCHAR

STARTCHAR <unknown>
ENCODING 166
SWIDTH 42 0
DWIDTH 7 0
BBX 7 13 0 -4
BITMAP
00
10
10
10
10
10
00
10
10
10
10
10
00
ENDCHAR

STARTCHAR <unknown>
ENCODING 167
SWIDTH 42 0
DWIDTH 7 0
BBX 7 13 0 -4
BITMAP
00
18
24
20
18
24
24
18
04
24
18
00
00
ENDCHAR

STARTCHAR <unknown>
ENCODING 168
SWIDTH 42 0
DWIDTH 7 0
BBX 7 13 0 -4
BITMAP
00
28
28
00
00
00
00
00
00
00
00
00
00
ENDCHAR

STARTCHAR <unknown>
ENCODING 169
SWIDTH 42 0
DWIDTH 7 0
BBX 7 13 0 -4
BITMAP
00
38
44
9A
A2
A2
9A
44
38
00
00
00
00
ENDCHAR

STARTCHAR <unknown>
ENCODING 170
SWIDTH 42 0
DWIDTH 7 0
BBX 7 13 0 -4
BITMAP
00
18
04
0C
14
1C
00
1C
00
00
00
00
00
ENDCHAR

STARTCHAR <unknown>
ENCODING 171
SWIDTH 42 0
DWIDTH 7 0
BBX 7 13 0 -4
BITMAP
00
00
00
00
12
24
48
24
12
00
00
00
00
ENDCHAR

STARTCHAR <unknown>
ENCODING 172
SWIDTH 42 0
DWIDTH 7 0
BBX 7 13 0 -4
BITMAP
00
00
7C
04
00
00
00
00
00
00
00
00
00
ENDCHAR

STARTCHAR <unknown>
ENCODING 173
SWIDTH 42 0
DWIDTH 7 0
BBX 7 13 0 -4
BITMAP
00
00
00
00
00
00
7C
00
00
00
00
00
00
ENDCHAR

STARTCHAR <unknown>
ENCODING 174
SWIDTH 42 0
DWIDTH 7 0
BBX 7 13 0 -4
BITMAP
00
38
44
BA
AA
B2
AA
44
38
00
00
00
00
ENDCHAR

STARTCHAR <unknown>
ENCODING 175
SWIDTH 42 0
DWIDTH 7 0
BBX 7 13 0 -4
BITMAP
00
38
00
00
00
00
00
00
00
00
00
00
00
ENDCHAR

STARTCHAR <unknown>
ENCODING 176
SWIDTH 42 0
DWIDTH 7 0
BBX 7 13 0 -4
BITMAP
00
10
28
10
00
00
00
00
00
00
00
00
00
ENDCHAR

STARTCHAR <unknown>
ENCODING 177
SWIDTH 42 0
DWIDTH 7 0
BBX 7 13 0 -4
BITMAP
00
00
00
10
10
7C
10
10
00
7C
00
00
00
ENDCHAR

STARTCHAR <unknown>
ENCODING 178
SWIDTH 42 0
DWIDTH 7 0
BBX 7 13 0 -4
BITMAP
00
18
04
04
08
10
1C
00
00
00
00
00
00
ENDCHAR

STARTCHAR <unknown>
ENCODING 179
SWIDTH 42 0
DWIDTH 7 0
BBX 7 13 0 -4
BITMAP
00
18
04
08
04
24
18
00
00
00
00
00
00
ENDCHAR

STARTCHAR <unknown>
ENCODING 180
SWIDTH 42 0
DWIDTH 7 0
BBX 7 13 0 -4
BITMAP
00
08
10
20
00
00
00
00
00
00
00
00
00
ENDCHAR

STARTCHAR <unknown>
ENCODING 181
SWIDTH 42 0
DWIDTH 7 0
BBX 7 13 0 -4
BITMAP
00
00
00
00
24
24
24
24
24
3A
20
40
00
ENDCHAR

STARTCHAR <unknown>
ENCODING 182
SWIDTH 42 0
DWIDTH 7 0
BBX 7 13 0 -4
BITMAP
00
3E
54
54
54
34
14
14
14
36
00
00
00
ENDCHAR

STARTCHAR <unknown>
ENCODING 183
SWIDTH 42 0
DWIDTH 7 0
BBX 7 13 0 -4
BITMAP
00
00
00
00
00
00
18
18
00
00
00
00
00
ENDCHAR

STARTCHAR <unknown>
ENCODING 184
SWIDTH 42 0
DWIDTH 7 0
BBX 7 13 0 -4
BITMAP
00
00
00
00
00
00
00
00
00
00
10
08
30
ENDCHAR

STARTCHAR <unknown>
ENCODING 185
SWIDTH 42 0
DWIDTH 7 0
BBX 7 13 0 -4
BITMAP
00
08
18
08
08
08
1C
00
00
00
00
00
00
ENDCHAR

STARTCHAR <unknown>
ENCODING 186
SWIDTH 42 0
DWIDTH 7 0
BBX 7 13 0 -4
BITMAP
00
08
14
14
14
08
00
1C
00
00
00
00
00
ENDCHAR

STARTCHAR <unknown>
ENCODING 187
SWIDTH 42 0
DWIDTH 7 0
BBX 7 13 0 -4
BITMAP
00
00
00
00
48
24
12
24
48
00
00
00
00
ENDCHAR

STARTCHAR <unknown>
ENCODING 188
SWIDTH 42 0
DWIDTH 7 0
BBX 7 13 0 -4
BITMAP
00
40
C2
44
48
F4
2C
54
9E
04
00
00
00
ENDCHAR

STARTCHAR <unknown>
ENCODING 189
SWIDTH 42 0
DWIDTH 7 0
BBX 7 13 0 -4
BITMAP
00
40
C2
44
48
F4
2A
42
84
0E
00
00
00
ENDCHAR

STARTCHAR <unknown>
ENCODING 190
SWIDTH 42 0
DWIDTH 7 0
BBX 7 13 0 -4
BITMAP
00
C0
22
64
28
D4
2C
54
9E
04
00
00
00
ENDCHAR

STARTCHAR <unknown>
ENCODING 191
SWIDTH 42 0
DWIDTH 7 0
BBX 7 13 0 -4
BITMAP
00
10
00
10
10
10
20
44
44
38
00
00
00
ENDCHAR

STARTCHAR <unknown>
ENCODING 192
SWIDTH 42 0
DWIDTH 7 0
BBX 7 13 0 -4
BITMAP
20
10
00
10
10
28
28
7C
44
C6
00
00
00
ENDCHAR

STARTCHAR <unknown>
ENCODING 193
SWIDTH 42 0
DWIDTH 7 0
BBX 7 13 0 -4
BITMAP
08
10
00
10
10
28
28
7C
44
C6
00
00
00
ENDCHAR

STARTCHAR <unknown>
ENCODING 194
SWIDTH 42 0
DWIDTH 7 0
BBX 7 13 0 -4
BITMAP
10
28
44
10
10
28
28
7C
44
C6
00
00
00
ENDCHAR

STARTCHAR <unknown>
ENCODING 195
SWIDTH 42 0
DWIDTH 7 0
BBX 7 13 0 -4
BITMAP
34
58
00
10
10
28
28
7C
44
C6
00
00
00
ENDCHAR

STARTCHAR <unknown>
ENCODING 196
SWIDTH 42 0
DWIDTH 7 0
BBX 7 13 0 -4
BITMAP
28
28
00
10
10
28
28
7C
44
C6
00
00
00
ENDCHAR

STARTCHAR <unknown>
ENCODING 197
SWIDTH 42 0
DWIDTH 7 0
BBX 7 13 0 -4
BITMAP
10
28
38
10
10
28
28
7C
44
C6
00
00
00
ENDCHAR

STARTCHAR <unknown>
ENCODING 198
SWIDTH 42 0
DWIDTH 7 0
BBX 7 13 0 -4
BITMAP
00
0E
08
18
18
2E
28
78
48
CE
00
00
00
ENDCHAR

STARTCHAR <unknown>
ENCODING 199
SWIDTH 42 0
DWIDTH 7 0
BBX 7 13 0 -4
BITMAP
00
1A
26
42
40
40
40
42
64
38
10
08
30
ENDCHAR

STARTCHAR <unknown>
ENCODING 200
SWIDTH 42 0
DWIDTH 7 0
BBX 7 13 0 -4
BITMAP
10
08
7E
22
20
38
20
20
22
7E
00
00
00
ENDCHAR

STARTCHAR <unknown>
ENCODING 201
SWIDTH 42 0
DWIDTH 7 0
BBX 7 13 0 -4
BITMAP
04
08
7E
22
20
38
20
20
22
7E
00
00
00
ENDCHAR

STARTCHAR <unknown>
ENCODING 202
SWIDTH 42 0
DWIDTH 7 0
BBX 7 13 0 -4
BITMAP
08
14
7E
22
20
38
20
20
22
7E
00
00
00
ENDCHAR

STARTCHAR <unknown>
ENCODING 203
SWIDTH 42 0
DWIDTH 7 0
BBX 7 13 0 -4
BITMAP
14
00
7E
22
20
38
20
20
22
7E
00
00
00
ENDCHAR

STARTCHAR <unknown>
ENCODING 204
SWIDTH 42 0
DWIDTH 7 0
BBX 7 13 0 -4
BITMAP
20
10
7C
10
10
10
10
10
10
7C
00
00
00
ENDCHAR

STARTCHAR <unknown>
ENCODING 205
SWIDTH 42 0
DWIDTH 7 0
BBX 7 13 0 -4
BITMAP
08
10
7C
10
10
10
10
10
10
7C
00
00
00
ENDCHAR

STARTCHAR <unknown>
ENCODING 206
SWIDTH 42 0
DWIDTH 7 0
BBX 7 13 0 -4
BITMAP
10
28
7C
10
10
10
10
10
10
7C
00
00
00
ENDCHAR

STARTCHAR <unknown>
ENCODING 207
SWIDTH 42 0
DWIDTH 7 0
BBX 7 13 0 -4
BITMAP
28
00
7C
10
10
10
10
10
10
7C
00
00
00
ENDCHAR

STARTCHAR <unknown>
ENCODING 208
SWIDTH 42 0
DWIDTH 7 0
BBX 7 13 0 -4
BITMAP
00
78
24
22
22
72
22
22
24
78
00
00
00
ENDCHAR

STARTCHAR <unknown>
ENCODING 209
SWIDTH 42 0
DWIDTH 7 0
BBX 7 13 0 -4
BITMAP
34
58
00
CE
64
54
54
4C
44
E4
00
00
00
ENDCHAR

STARTCHAR <unknown>
ENCODING 210
SWIDTH 42 0
DWIDTH 7 0
BBX 7 13 0 -4
BITMAP
10
08
1C
26
42
42
42
42
64
38
00
00
00
ENDCHAR

STARTCHAR <unknown>
ENCODING 211
SWIDTH 42 0
DWIDTH 7 0
BBX 7 13 0 -4
BITMAP
04
08
1C
26
42
42
42
42
64
38
00
00
00
ENDCHAR

STARTCHAR <unknown>
ENCODING 212
SWIDTH 42 0
DWIDTH 7 0
BBX 7 13 0 -4
BITMAP
08
14
1C
26
42
42
42
42
64
38
00
00
00
ENDCHAR

STARTCHAR <unknown>
ENCODING 213
SWIDTH 42 0
DWIDTH 7 0
BBX 7 13 0 -4
BITMAP
1A
2C
00
1C
26
42
42
42
64
38
00
00
00
ENDCHAR

STARTCHAR <unknown>
ENCODING 214
SWIDTH 42 0
DWIDTH 7 0
BBX 7 13 0 -4
BITMAP
14
00
1C
26
42
42
42
42
64
38
00
00
00
ENDCHAR

STARTCHAR <unknown>
ENCODING 215
SWIDTH 42 0
DWIDTH 7 0
BBX 7 13 0 -4
BITMAP
00
00
00
00
44
28
10
28
44
00
00
00
00
ENDCHAR

STARTCHAR <unknown>
ENCODING 216
SWIDTH 42 0
DWIDTH 7 0
BBX 7 13 0 -4
BITMAP
00
02
1C
26
4A
4A
52
52
64
38
40
00
00
ENDCHAR

STARTCHAR <unknown>
ENCODING 217
SWIDTH 42 0
DWIDTH 7 0
BBX 7 13 0 -4
BITMAP
20
10
EE
44
44
44
44
44
44
38
00
00
00
ENDCHAR

STARTCHAR <unknown>
ENCODING 218
SWIDTH 42 0
DWIDTH 7 0
BBX 7 13 0 -4
BITMAP
08
10
EE
44
44
44
44
44
44
38
00
00
00
ENDCHAR

STARTCHAR <unknown>
ENCODING 219
SWIDTH 42 0
DWIDTH 7 0
BBX 7 13 0 -4
BITMAP
10
28
C6
44
44
44
44
44
44
38
00
00
00
ENDCHAR

STARTCHAR <unknown>
ENCODING 220
SWIDTH 42 0
DWIDTH 7 0
BBX 7 13 0 -4
BITMAP
28
00
EE
44
44
44
44
44
44
38
00
00
00
ENDCHAR

STARTCHAR <unknown>
ENCODING 221
SWIDTH 42 0
DWIDTH 7 0
BBX 7 13 0 -4
BITMAP
08
10
C6
44
28
28
10
10
10
38
00
00
00
ENDCHAR

STARTCHAR <unknown>
ENCODING 222
SWIDTH 42 0
DWIDTH 7 0
BBX 7 13 0 -4
BITMAP
70
20
3C
22
22
22
3C
20
20
70
00
00
00
ENDCHAR

STARTCHAR <unknown>
ENCODING 223
SWIDTH 42 0
DWIDTH 7 0
BBX 7 13 0 -4
BITMAP
00
18
24
24
44
48
44
42
42
4C
00
00
00
ENDCHAR

STARTCHAR <unknown>
ENCODING 224
SWIDTH 42 0
DWIDTH 7 0
BBX 7 13 0 -4
BITMAP
00
20
10
00
38
04
3C
44
44
3C
00
00
00
ENDCHAR

STARTCHAR <unknown>
ENCODING 225
SWIDTH 42 0
DWIDTH 7 0
BBX 7 13 0 -4
BITMAP
00
08
10
00
38
04
3C
44
44
3C
00
00
00
ENDCHAR

STARTCHAR <unknown>
ENCODING 226
SWIDTH 42 0
DWIDTH 7 0
BBX 7 13 0 -4
BITMAP
00
10
28
00
38
04
3C
44
44
3C
00
00
00
ENDCHAR

STARTCHAR <unknown>
ENCODING 227
SWIDTH 42 0
DWIDTH 7 0
BBX 7 13 0 -4
BITMAP
00
34
58
00
38
04
3C
44
44
3C
00
00
00
ENDCHAR

STARTCHAR <unknown>
ENCODING 228
SWIDTH 42 0
DWIDTH 7 0
BBX 7 13 0 -4
BITMAP
00
28
28
00
38
04
3C
44
44
3C
00
00
00
ENDCHAR

STARTCHAR <unknown>
ENCODING 229
SWIDTH 42 0
DWIDTH 7 0
BBX 7 13 0 -4
BITMAP
10
28
10
00
38
04
3C
44
44
3C
00
00
00
ENDCHAR

STARTCHAR <unknown>
ENCODING 230
SWIDTH 42 0
DWIDTH 7 0
BBX 7 13 0 -4
BITMAP
00
00
00
00
6C
12
7E
90
92
6C
00
00
00
ENDCHAR

STARTCHAR <unknown>
ENCODING 231
SWIDTH 42 0
DWIDTH 7 0
BBX 7 13 0 -4
BITMAP
00
00
00
00
3C
44
40
40
64
38
10
08
30
ENDCHAR

STARTCHAR <unknown>
ENCODING 232
SWIDTH 42 0
DWIDTH 7 0
BBX 7 13 0 -4
BITMAP
00
20
10
00
38
44
7C
40
44
38
00
00
00
ENDCHAR

STARTCHAR <unknown>
ENCODING 233
SWIDTH 42 0
DWIDTH 7 0
BBX 7 13 0 -4
BITMAP
00
08
10
00
38
44
7C
40
44
38
00
00
00
ENDCHAR

STARTCHAR <unknown>
ENCODING 234
SWIDTH 42 0
DWIDTH 7 0
BBX 7 13 0 -4
BITMAP
00
10
28
00
38
44
7C
40
44
38
00
00
00
ENDCHAR

STARTCHAR <unknown>
ENCODING 235
SWIDTH 42 0
DWIDTH 7 0
BBX 7 13 0 -4
BITMAP
00
28
28
00
38
44
7C
40
44
38
00
00
00
ENDCHAR

STARTCHAR <unknown>
ENCODING 236
SWIDTH 42 0
DWIDTH 7 0
BBX 7 13 0 -4
BITMAP
00
20
10
00
70
10
10
10
10
7C
00
00
00
ENDCHAR

STARTCHAR <unknown>
ENCODING 237
SWIDTH 42 0
DWIDTH 7 0
BBX 7 13 0 -4
BITMAP
00
08
10
00
70
10
10
10
10
7C
00
00
00
ENDCHAR

STARTCHAR <unknown>
ENCODING 238
SWIDTH 42 0
DWIDTH 7 0
BBX 7 13 0 -4
BITMAP
00
10
28
00
70
10
10
10
10
7C
00
00
00
ENDCHAR

STARTCHAR <unknown>
ENCODING 239
SWIDTH 42 0
DWIDTH 7 0
BBX 7 13 0 -4
BITMAP
00
28
28
00
70
10
10
10
10
7C
00
00
00
ENDCHAR

STARTCHAR <unknown>
ENCODING 240
SWIDTH 42 0
DWIDTH 7 0
BBX 7 13 0 -4
BITMAP
00
20
14
08
14
04
3C
44
44
38
00
00
00
ENDCHAR

STARTCHAR <unknown>
ENCODING 241
SWIDTH 42 0
DWIDTH 7 0
BBX 7 13 0 -4
BITMAP
00
34
58
00
58
24
24
24
24
66
00
00
00
ENDCHAR

STARTCHAR <unknown>
ENCODING 242
SWIDTH 42 0
DWIDTH 7 0
BBX 7 13 0 -4
BITMAP
00
20
10
00
38
4C
44
44
64
38
00
00
00
ENDCHAR

STARTCHAR <unknown>
ENCODING 243
SWIDTH 42 0
DWIDTH 7 0
BBX 7 13 0 -4
BITMAP
00
08
10
00
38
4C
44
44
64
38
00
00
00
ENDCHAR

STARTCHAR <unknown>
ENCODING 244
SWIDTH 42 0
DWIDTH 7 0
BBX 7 13 0 -4
BITMAP
00
10
28
00
38
4C
44
44
64
38
00
00
00
ENDCHAR

STARTCHAR <unknown>
ENCODING 245
SWIDTH 42 0
DWIDTH 7 0
BBX 7 13 0 -4
BITMAP
00
34
58
00
38
4C
44
44
64
38
00
00
00
ENDCHAR

STARTCHAR <unknown>
ENCODING 246
SWIDTH 42 0
DWIDTH 7 0
BBX 7 13 0 -4
BITMAP
00
28
28
00
38
4C
44
44
64
38
00
00
00
ENDCHAR

STARTCHAR <unknown>
ENCODING 247
SWIDTH 42 0
DWIDTH 7 0
BBX 7 13 0 -4
BITMAP
00
00
00
00
10
00
7C
00
10
00
00
00
00
ENDCHAR

STARTCHAR <unknown>
ENCODING 248
SWIDTH 42 0
DWIDTH 7 0
BBX 7 13 0 -4
BITMAP
00
00
00
08
38
4C
54
54
64
38
20
00
00
ENDCHAR

STARTCHAR <unknown>
ENCODING 249
SWIDTH 42 0
DWIDTH 7 0
BBX 7 13 0 -4
BITMAP
00
20
10
00
6C
24
24
24
24
1A
00
00
00
ENDCHAR

STARTCHAR <unknown>
ENCODING 250
SWIDTH 42 0
DWIDTH 7 0
BBX 7 13 0 -4
BITMAP
00
08
10
00
6C
24
24
24
24
1A
00
00
00
ENDCHAR

STARTCHAR <unknown>
ENCODING 251
SWIDTH 42 0
DWIDTH 7 0
BBX 7 13 0 -4
BITMAP
00
10
28
00
6C
24
24
24
24
1A
00
00
00
ENDCHAR

STARTCHAR <unknown>
ENCODING 252
SWIDTH 42 0
DWIDTH 7 0
BBX 7 13 0 -4
BITMAP
00
28
28
00
6C
24
24
24
24
1A
00
00
00
ENDCHAR

STARTCHAR <unknown>
ENCODING 253
SWIDTH 42 0
DWIDTH 7 0
BBX 7 13 0 -4
BITMAP
00
08
10
00
EE
44
24
28
18
10
20
C0
00
ENDCHAR

STARTCHAR <unknown>
ENCODING 254
SWIDTH 42 0
DWIDTH 7 0
BBX 7 13 0 -4
BITMAP
00
00
00
60
20
2C
32
22
32
2C
20
20
70
ENDCHAR

STARTCHAR <unknown>
ENCODING 255
SWIDTH 42 0
DWIDTH 7 0
BBX 7 13 0 -4
BITMAP
00
28
28
00
EE
44
24
28
18
10
20
C0
00
ENDCHAR
ENDFONT
